<?xml version="1.0" encoding="utf-8"?>
<!-- Generator: Adobe Illustrator 14.0.0, SVG Export Plug-In . SVG Version: 6.00 Build 43363)  -->
<!DOCTYPE svg PUBLIC "-//W3C//DTD SVG 1.1//EN" "http://www.w3.org/Graphics/SVG/1.1/DTD/svg11.dtd">
<svg version="1.1" id="Layer_1" xmlns="http://www.w3.org/2000/svg" xmlns:xlink="http://www.w3.org/1999/xlink" x="0px" y="0px"
	 width="612px" height="792px" viewBox="0 0 612 792" enable-background="new 0 0 612 792" xml:space="preserve">
<g id="XMLID_1_">
	<g>
		<path d="M561,625.5V651h-25.5h-459H51v-25.5V243v-18.33l17.53-5.58l229.5-76.5l7.97-3.18l7.97,3.18l229.5,76.5l17.53,5.58V243
			V625.5z M510,600V261.33L306,192.8l-204,68.53V600h229.5V498h102v102H510z"/>
		<path fill="#FFFFFF" d="M510,261.33V600h-76.5V498h-102v102H102V261.33l204-68.53L510,261.33z M433.5,447v-51h-102v51H433.5z
			 M433.5,345v-51h-102v51H433.5z M280.5,549v-51h-102v51H280.5z M280.5,447v-51h-102v51H280.5z M280.5,345v-51h-102v51H280.5z"/>
		<rect x="331.5" y="396" width="102" height="51"/>
		<rect x="331.5" y="294" width="102" height="51"/>
		<rect x="178.5" y="498" width="102" height="51"/>
		<rect x="178.5" y="396" width="102" height="51"/>
		<rect x="178.5" y="294" width="102" height="51"/>
	</g>
	<g>
	</g>
</g>
</svg>
