<?xml version="1.0" encoding="utf-8"?>
<!-- Generator: Adobe Illustrator 14.0.0, SVG Export Plug-In . SVG Version: 6.00 Build 43363)  -->
<!DOCTYPE svg PUBLIC "-//W3C//DTD SVG 1.1//EN" "http://www.w3.org/Graphics/SVG/1.1/DTD/svg11.dtd">
<svg version="1.1" id="Capa_1" xmlns="http://www.w3.org/2000/svg" xmlns:xlink="http://www.w3.org/1999/xlink" x="0px" y="0px"
	 width="612px" height="792px" viewBox="0 0 612 792" enable-background="new 0 0 612 792" xml:space="preserve">
<g>
	<g id="XMLID_1_">
		<g>
			<path fill="#231F20" d="M278.78,514.73l-0.01,35.01L278.66,594H88.78l-0.11-44.62V514.73c0-18.4,20.31-25.551,35.14-30.771
				c3.17-1.11,6.72-2.36,9.71-3.62c-0.35-0.39-0.71-0.78-1.07-1.17c-13.43-14.74-28.65-31.43-28.76-60.99l-1.79-22.87
				c-4.07-52.29,23.36-60.74,61.32-72.43c5.72-1.77,11.64-3.59,17.99-5.69c8.26-2.74,16.39-4.13,24.14-4.13
				c16.52,0,30.98,6.18,41.8,17.88c13.92,15.04,20.45,37.91,18.4,64.37l-1.79,22.87c-0.11,29.561-15.33,46.25-28.76,60.99
				c-0.37,0.39-0.72,0.78-1.07,1.17c2.99,1.26,6.54,2.5,9.7,3.62C258.46,489.18,278.78,496.33,278.78,514.73z M244.75,415.32v-18.21
				c0-1.601-0.07-3.21-0.2-4.831h-7.68c-14.71,0-20.3-13.68-22.88-22.37c-14.49,6.8-48.4,21.47-91.1,22.33
				c-0.13,1.63-0.2,3.26-0.2,4.87v18.21c0,33.66,27.38,61.08,61.04,61.13C217.37,476.4,244.75,448.98,244.75,415.32z M183.72,552.47
				l48.22-51.149H135.5L183.72,552.47z"/>
			<rect x="385.11" y="544.5" fill="#231F20" width="159.399" height="45.13"/>
			<rect x="381.73" y="444.74" fill="#231F20" width="159.399" height="45.13"/>
			<rect x="381.73" y="344.98" fill="#231F20" width="159.399" height="45.13"/>
			<rect x="171.54" y="179.69" fill="#231F20" width="268.92" height="64.95"/>
			<path fill="#FFFFFF" d="M612,158.47v475.06c0,17.66-14.37,32.02-32.02,32.02H32.02C14.37,665.55,0,651.19,0,633.53V158.47
				c0-17.66,14.37-32.02,32.02-32.02h547.96C597.64,126.45,612,140.81,612,158.47z M544.51,589.63V544.5H385.11v45.13H544.51z
				 M541.13,489.87v-45.13H381.73v45.13H541.13z M541.13,390.11v-45.13H381.73v45.13H541.13z M440.46,244.64v-64.95H171.54v64.95
				H440.46z M278.77,549.74l0.01-35.01c0-18.4-20.32-25.551-35.15-30.771c-3.16-1.12-6.71-2.36-9.7-3.62
				c0.35-0.39,0.7-0.78,1.07-1.17c13.43-14.74,28.65-31.43,28.76-60.99l1.79-22.87c2.05-26.46-4.48-49.33-18.4-64.37
				c-10.82-11.7-25.28-17.88-41.8-17.88c-7.75,0-15.88,1.39-24.14,4.13c-6.35,2.1-12.27,3.92-17.99,5.69
				c-37.96,11.69-65.39,20.14-61.32,72.43l1.79,22.87c0.11,29.561,15.33,46.25,28.76,60.99c0.36,0.39,0.72,0.78,1.07,1.17
				c-2.99,1.26-6.54,2.51-9.71,3.62c-14.83,5.22-35.14,12.37-35.14,30.771v34.649L88.78,594h189.88L278.77,549.74z"/>
			<path fill="#FFFFFF" d="M244.75,397.11v18.21c0,33.66-27.38,61.08-61.02,61.13c-33.66-0.05-61.04-27.47-61.04-61.13v-18.21
				c0-1.61,0.07-3.24,0.2-4.87c42.7-0.86,76.61-15.53,91.1-22.33c2.58,8.69,8.17,22.37,22.88,22.37h7.68
				C244.68,393.9,244.75,395.51,244.75,397.11z"/>
			<polygon fill="#FFFFFF" points="231.94,501.32 183.72,552.47 135.5,501.32 			"/>
		</g>
		<g>
		</g>
	</g>
</g>
</svg>
