<?xml version="1.0" encoding="utf-8"?>
<!-- Generator: Adobe Illustrator 14.0.0, SVG Export Plug-In . SVG Version: 6.00 Build 43363)  -->
<!DOCTYPE svg PUBLIC "-//W3C//DTD SVG 1.1//EN" "http://www.w3.org/Graphics/SVG/1.1/DTD/svg11.dtd">
<svg version="1.1" id="Capa_1" xmlns="http://www.w3.org/2000/svg" xmlns:xlink="http://www.w3.org/1999/xlink" x="0px" y="0px"
	 width="612px" height="792px" viewBox="0 0 612 792" enable-background="new 0 0 612 792" xml:space="preserve">
<g>
	<g id="XMLID_1_">
		<g>
			<path fill="#FFFFFF" d="M525.3,253.2V681.6H86.7V110.4h295.8v142.8H525.3z M443.7,324.6c0-5.64-4.57-10.2-10.2-10.2h-255
				c-5.63,0-10.2,4.56-10.2,10.2s4.57,10.2,10.2,10.2h255C439.13,334.8,443.7,330.24,443.7,324.6z M443.7,406.2
				c0-5.641-4.57-10.2-10.2-10.2h-255c-5.63,0-10.2,4.56-10.2,10.2c0,5.64,4.57,10.2,10.2,10.2h255
				C439.13,416.4,443.7,411.84,443.7,406.2z M443.7,487.8c0-5.64-4.57-10.2-10.2-10.2h-255c-5.63,0-10.2,4.561-10.2,10.2
				c0,5.641,4.57,10.2,10.2,10.2h255C439.13,498,443.7,493.44,443.7,487.8z M443.7,569.4c0-5.641-4.57-10.2-10.2-10.2h-255
				c-5.63,0-10.2,4.56-10.2,10.2c0,5.64,4.57,10.199,10.2,10.199h255C439.13,579.6,443.7,575.04,443.7,569.4z M290.7,243
				c0-5.64-4.57-10.2-10.2-10.2h-102c-5.63,0-10.2,4.56-10.2,10.2s4.57,10.2,10.2,10.2h102C286.13,253.2,290.7,248.64,290.7,243z"/>
			<polygon fill="#FFFFFF" points="510.88,232.8 402.9,232.8 402.9,124.82 			"/>
			<path d="M545.7,238.78V702H66.3V90h330.62L545.7,238.78z M525.3,681.6V253.2H382.5V110.4H86.7v571.2H525.3z M402.9,232.8H510.88
				L402.9,124.82V232.8z"/>
			<path d="M433.5,314.4c5.63,0,10.2,4.56,10.2,10.2s-4.57,10.2-10.2,10.2h-255c-5.63,0-10.2-4.56-10.2-10.2s4.57-10.2,10.2-10.2
				H433.5z"/>
			<path d="M433.5,396c5.63,0,10.2,4.56,10.2,10.2c0,5.64-4.57,10.2-10.2,10.2h-255c-5.63,0-10.2-4.561-10.2-10.2
				c0-5.641,4.57-10.2,10.2-10.2H433.5z"/>
			<path d="M433.5,477.6c5.63,0,10.2,4.561,10.2,10.2c0,5.641-4.57,10.2-10.2,10.2h-255c-5.63,0-10.2-4.56-10.2-10.2
				c0-5.64,4.57-10.2,10.2-10.2H433.5z"/>
			<path d="M433.5,559.2c5.63,0,10.2,4.56,10.2,10.2c0,5.64-4.57,10.199-10.2,10.199h-255c-5.63,0-10.2-4.56-10.2-10.199
				c0-5.641,4.57-10.2,10.2-10.2H433.5z"/>
			<path d="M280.5,232.8c5.63,0,10.2,4.56,10.2,10.2s-4.57,10.2-10.2,10.2h-102c-5.63,0-10.2-4.56-10.2-10.2s4.57-10.2,10.2-10.2
				H280.5z"/>
		</g>
		<g>
		</g>
	</g>
</g>
</svg>
