<?xml version="1.0" encoding="utf-8"?>
<!-- Generator: Adobe Illustrator 14.0.0, SVG Export Plug-In . SVG Version: 6.00 Build 43363)  -->
<!DOCTYPE svg PUBLIC "-//W3C//DTD SVG 1.1//EN" "http://www.w3.org/Graphics/SVG/1.1/DTD/svg11.dtd">
<svg version="1.1" id="Layer_1" xmlns="http://www.w3.org/2000/svg" xmlns:xlink="http://www.w3.org/1999/xlink" x="0px" y="0px"
	 width="491.52px" height="491.52px" viewBox="0 0 491.52 491.52" enable-background="new 0 0 491.52 491.52" xml:space="preserve">
<g id="_264859024">
	<g id="XMLID_1_">
		<g>
			<path fill="#FFFFFF" d="M406.68,271.21v147.35h-63.04V269.14c0-9.75-1.49-18.149-6.12-24.34c-4.779-6.38-12.54-10.1-24.88-10.1
				c-39.74,0-47.49,33.45-47.51,33.541l-0.12,0.899v149.42h-63.04V178.17h63.04v19.9v7.63l6.12-4.56
				c4.95-3.69,13.53-9.39,25.18-14.17c11.62-4.77,26.3-8.63,43.48-8.63c12.97,0,34.3,4.63,49.31,25.16
				C399.33,217.48,406.68,238.87,406.68,271.21z"/>
			<rect x="84.84" y="178.17" fill="#FFFFFF" width="63.27" height="240.39"/>
			<path fill="#FFFFFF" d="M137.25,81.7c5.31,5.31,8.6,12.61,8.6,20.64c0,8.19-3.28,15.58-8.59,20.91
				c-5.31,5.34-12.66,8.64-20.78,8.64c-8.12,0-15.47-3.3-20.79-8.64c-5.3-5.34-8.59-12.72-8.59-20.92c0-8.1,3.29-15.45,8.61-20.76
				c5.32-5.32,12.66-8.61,20.77-8.61v-0.01C124.57,73.03,131.92,76.37,137.25,81.7z"/>
			<path fill="#212121" d="M414.359,422.399v3.841h-3.84H339.79h-3.84v-3.841V269.14c0-8.24-1.101-15.14-4.551-19.75
				c-3.319-4.43-9.13-7.01-18.76-7.01c-31.16,0-38.95,23.62-39.95,27.2v152.819v3.841h-3.84h-70.72h-3.84v-3.841V174.33v-3.84h3.84
				h70.72h3.84v3.84v16.41c5.24-3.41,12.21-7.36,20.71-10.85c12.431-5.11,28.101-9.23,46.391-9.23c14.59,0,38.6,5.21,55.489,28.31
				c11.101,15.18,19.08,38.06,19.08,72.24V422.399z M406.68,418.56V271.21c0-32.34-7.35-53.73-17.58-67.71
				c-15.01-20.53-36.34-25.16-49.31-25.16c-17.181,0-31.86,3.86-43.48,8.63c-11.649,4.78-20.229,10.48-25.18,14.17l-6.12,4.56v-7.63
				v-19.9h-63.04v240.39h63.04V269.14l0.12-0.899c0.02-0.091,7.77-33.541,47.51-33.541c12.34,0,20.101,3.72,24.88,10.1
				c4.63,6.19,6.12,14.59,6.12,24.34v149.42H406.68z"/>
			<path fill="#212121" d="M155.79,422.399v3.841h-3.84H81h-3.84v-3.841V174.33v-3.84H81h70.95h3.84v3.84V422.399z M148.11,418.56
				V178.17H84.84v240.39H148.11z"/>
			<path fill="#212121" d="M142.68,76.27c6.7,6.7,10.85,15.92,10.85,26.07c0,10.28-4.14,19.58-10.84,26.31
				c-6.71,6.75-15.98,10.92-26.21,10.92s-19.5-4.17-26.22-10.92c-6.69-6.73-10.84-16.03-10.84-26.31c0-10.23,4.15-19.5,10.86-26.2
				c6.71-6.71,15.97-10.86,26.2-10.86l0.03,0.01C126.74,65.39,135.99,69.58,142.68,76.27z M145.85,102.34
				c0-8.03-3.29-15.33-8.6-20.64c-5.33-5.33-12.68-8.67-20.77-8.75v0.01c-8.11,0-15.45,3.29-20.77,8.61
				c-5.32,5.31-8.61,12.66-8.61,20.76c0,8.2,3.29,15.58,8.59,20.92c5.32,5.34,12.67,8.64,20.79,8.64c8.12,0,15.47-3.3,20.78-8.64
				C142.57,117.92,145.85,110.53,145.85,102.34z"/>
		</g>
		<g>
		</g>
	</g>
</g>
<rect fill="none" width="491.52" height="491.52"/>
</svg>
