<?xml version="1.0" encoding="utf-8"?>
<!-- Generator: Adobe Illustrator 14.0.0, SVG Export Plug-In . SVG Version: 6.00 Build 43363)  -->
<!DOCTYPE svg PUBLIC "-//W3C//DTD SVG 1.1//EN" "http://www.w3.org/Graphics/SVG/1.1/DTD/svg11.dtd">
<svg version="1.1" id="Layer_1" xmlns="http://www.w3.org/2000/svg" xmlns:xlink="http://www.w3.org/1999/xlink" x="0px" y="0px"
	 width="491.52px" height="491.52px" viewBox="0 0 491.52 491.52" enable-background="new 0 0 491.52 491.52" xml:space="preserve">
<g id="Layer_x0020_1">
	<g id="XMLID_1_">
		<g>
			<path fill="#FFFFFF" d="M411.56,277.47c0,10.41-4.2,19.79-10.99,26.55c-6.829,6.8-16.27,10.98-26.71,10.98H258.85
				c-0.24-0.061-0.45-0.181-0.6-0.34c-0.15-0.16-0.25-0.37-0.26-0.601H258V182.17h-0.01c0-0.34,0.01-0.53,0.01-0.53
				c0.149-0.19,0.64-0.44,1.54-0.78c3.899-1.51,8.06-2.71,12.41-3.52c4.109-0.77,8.409-1.19,12.81-1.19
				c18.08,0,34.53,6.89,46.87,18.18c12.47,11.42,20.77,27.32,22.35,45.14l0.46,5.22l4.82-2.01c2.31-0.96,4.71-1.71,7.16-2.2
				c2.359-0.47,4.85-0.72,7.439-0.72c10.42,0,19.851,4.21,26.66,11.03C407.34,257.609,411.56,267.05,411.56,277.47z"/>
			<path fill="#212121" d="M405.95,245.39c8.22,8.21,13.3,19.561,13.3,32.08c0,12.521-5.08,23.81-13.28,31.98
				c-8.22,8.189-19.58,13.229-32.11,13.229h-115.21l-0.37-0.03c-2.21-0.22-4.189-1.229-5.609-2.739c-1.42-1.521-2.3-3.54-2.33-5.811
				l-0.021-0.04V182.17l0.021-0.05c0.03-2.06,0.46-3.7,1.66-5.22c1.06-1.34,2.56-2.33,4.779-3.18c4.341-1.69,8.971-3.02,13.761-3.91
				c4.64-0.87,9.41-1.34,14.22-1.34c20.04,0,38.3,7.66,52.03,20.22c12.689,11.62,21.489,27.44,24.22,45.25
				c1.27-0.37,2.58-0.69,3.91-0.96c2.95-0.59,5.939-0.9,8.939-0.9C386.38,232.08,397.729,237.16,405.95,245.39z M400.569,304.02
				c6.79-6.76,10.99-16.14,10.99-26.55c0-10.42-4.22-19.86-11.04-26.68c-6.81-6.82-16.24-11.03-26.66-11.03
				c-2.59,0-5.08,0.25-7.439,0.72c-2.45,0.49-4.851,1.24-7.16,2.2l-4.82,2.01l-0.46-5.22c-1.58-17.82-9.88-33.72-22.35-45.14
				c-12.34-11.29-28.79-18.18-46.87-18.18c-4.4,0-8.7,0.42-12.81,1.19c-4.351,0.81-8.511,2.01-12.41,3.52
				c-0.9,0.34-1.391,0.59-1.54,0.78c0,0-0.01,0.19-0.01,0.53H258v131.89h-0.01c0.01,0.23,0.109,0.44,0.26,0.601
				c0.149,0.159,0.359,0.279,0.6,0.34h115.01C384.3,315,393.74,310.819,400.569,304.02z"/>
			<path fill="#212121" d="M241.72,185.02l1.19,95.98l-1.2,34.779c-0.02,2.57-1.23,4.671-2.69,4.671c-1.48,0-2.68-2.101-2.7-4.65
				l-0.56-17.17L235.22,281l1.1-95.48v-0.48c0-1.46,0.39-2.75,1-3.63c0.46-0.65,1.06-1.05,1.7-1.05c0.5,0,0.97,0.24,1.37,0.65
				C241.16,181.85,241.7,183.32,241.72,185.02z"/>
			<path fill="#212121" d="M222.48,192.99l1.07,87.98l-0.97,31.82l-0.1,3.489c-0.01,1.221-0.31,2.311-0.76,3.11
				c-0.45,0.78-1.08,1.271-1.76,1.271c-0.78,0-1.46-0.61-1.93-1.591c-0.35-0.72-0.57-1.63-0.59-2.609
				c-0.01-0.04-0.01-0.101-0.01-0.16c0,0-0.96-35.3-0.96-35.36l0.95-87.11l0.01-0.84c0.01-1.54,0.47-2.89,1.17-3.67
				c0.39-0.46,0.85-0.71,1.36-0.71c0.51,0,0.99,0.27,1.39,0.75C222.02,190.14,222.47,191.47,222.48,192.99z"/>
			<path fill="#212121" d="M207.71,207.04l1.18,73.94l-1.18,35.54c-0.02,2.29-1.07,4.07-2.36,4.07s-2.32-1.78-2.36-4.05l-1.05-35.58
				l1.05-73.92c0.04-2.29,1.07-4.09,2.36-4.09S207.69,204.75,207.71,207.04z"/>
			<path fill="#212121" d="M193.04,204.23l1.31,76.73l-1.31,35.78c-0.03,2.109-0.98,3.789-2.18,3.789c-1.19,0-2.16-1.68-2.18-3.77
				l-1.16-35.8l1.15-76.73c0.03-2.13,1-3.79,2.19-3.79C192.06,200.44,193.01,202.1,193.04,204.23z"/>
			<path fill="#212121" d="M178.5,202.22l1.41,78.74l-1.41,36.12c-0.03,1.949-0.92,3.489-2.01,3.489c-1.1,0-1.98-1.54-2.02-3.47
				l-1.26-36.14l1.26-78.74c0.04-1.96,0.92-3.49,2.02-3.49C177.58,198.73,178.47,200.26,178.5,202.22z"/>
			<path fill="#212121" d="M164.06,204.77l1.53,76.19l-1.53,36.34c-0.03,1.79-0.85,3.18-1.84,3.18c-1,0-1.81-1.39-1.85-3.16
				l-1.35-36.359c0,0,1.35-76.18,1.35-76.19c0.04-1.78,0.85-3.19,1.85-3.19C163.21,201.58,164.02,202.99,164.06,204.77z"/>
			<path fill="#212121" d="M149.52,210.82l1.65,70.32l-1.65,36.74c-0.04,1.61-0.78,2.89-1.68,2.89c-0.89,0-1.63-1.279-1.68-2.89
				l-1.45-36.74l1.45-70.32c0.05-1.61,0.79-2.89,1.68-2.89C148.74,207.93,149.48,209.21,149.52,210.82z"/>
			<path fill="#212121" d="M135.52,223.7l1.76,57.24l-1.76,36.95c-0.04,1.46-0.71,2.62-1.51,2.62s-1.47-1.16-1.51-2.6l-1.55-36.971
				l1.55-57.229c0.04-1.45,0.71-2.61,1.51-2.61S135.48,222.26,135.52,223.7z"/>
			<path fill="#212121" d="M121.41,245.73l1.88,35.19l-1.88,36.97c-0.04,1.32-0.63,2.29-1.33,2.29c-0.72,0-1.29-0.97-1.34-2.29
				l-1.66-36.97l1.66-35.17c0.05-1.31,0.62-2.29,1.34-2.29C120.79,243.46,121.37,244.44,121.41,245.73z"/>
			<path fill="#212121" d="M107.43,317.6c-0.05,1.13-0.56,1.99-1.17,1.99c-0.62,0-1.12-0.86-1.18-1.99l-1.75-36.68l1.75-37.92
				c0.06-1.14,0.56-1.99,1.18-1.99c0.61,0,1.12,0.85,1.17,1.99l1.99,37.92L107.43,317.6z"/>
			<path fill="#212121" d="M93.54,316.46c-0.06,1-0.48,1.689-0.99,1.689c-0.53,0-0.95-0.689-1-1.689l-1.86-35.54l1.86-36.9
				c0.04-1,0.47-1.72,1-1.72c0.51,0,0.93,0.72,0.99,1.72l2.11,36.9L93.54,316.46z"/>
			<path fill="#212121" d="M79.78,311.319c-0.07,0.82-0.41,1.4-0.83,1.4s-0.77-0.58-0.83-1.4l-1.96-30.42l1.96-31.1
				c0.06-0.8,0.41-1.4,0.83-1.4s0.76,0.58,0.83,1.4l2.22,31.1L79.78,311.319z"/>
			<path fill="#212121" d="M66.94,299.819c-0.07,0.78-0.39,1.341-0.8,1.341c-0.42,0-0.74-0.561-0.79-1.36l-1.46-18.91l1.46-19.22
				c0.05-0.8,0.37-1.36,0.79-1.36c0.41,0,0.73,0.561,0.8,1.36l1.73,19.25L66.94,299.819z"/>
		</g>
		<g>
		</g>
	</g>
</g>
<rect fill="none" width="491.52" height="491.52"/>
</svg>
