<?xml version="1.0" encoding="utf-8"?>
<!-- Generator: Adobe Illustrator 14.0.0, SVG Export Plug-In . SVG Version: 6.00 Build 43363)  -->
<!DOCTYPE svg PUBLIC "-//W3C//DTD SVG 1.1//EN" "http://www.w3.org/Graphics/SVG/1.1/DTD/svg11.dtd">
<svg version="1.1" id="Capa_1" xmlns="http://www.w3.org/2000/svg" xmlns:xlink="http://www.w3.org/1999/xlink" x="0px" y="0px"
	 width="612px" height="792px" viewBox="0 0 612 792" enable-background="new 0 0 612 792" xml:space="preserve">
<g>
	<g>
		<g>
			<g>
				<path fill="#FFFFFF" d="M182.825,494.732c-45.262,0-82.085-36.824-82.085-82.086c0-13.061,2.999-25.573,8.916-37.19
					c1.283-2.518,3.868-4.103,6.694-4.103h132.955c2.826,0,5.413,1.586,6.694,4.103c5.916,11.619,8.916,24.131,8.916,37.19
					C264.912,457.908,228.086,494.732,182.825,494.732z M121.119,386.376c-3.557,8.306-5.357,17.123-5.357,26.27
					c0,36.979,30.084,67.062,67.063,67.062c36.979,0,67.064-30.082,67.064-67.062c0-9.146-1.801-17.962-5.358-26.27H121.119z"/>
			</g>
			<g>
				<path fill="#FFFFFF" d="M429.177,494.732c-45.263,0-82.087-36.824-82.087-82.086c0-13.058,3-25.57,8.916-37.19
					c1.281-2.518,3.868-4.103,6.694-4.103h132.955c2.824,0,5.411,1.586,6.694,4.103c5.916,11.616,8.916,24.129,8.916,37.19
					C511.263,457.908,474.438,494.732,429.177,494.732z M367.472,386.376c-3.558,8.308-5.359,17.125-5.359,26.27
					c0,36.979,30.085,67.062,67.064,67.062c36.979,0,67.062-30.082,67.062-67.062c0-9.147-1.8-17.964-5.356-26.27H367.472z"/>
			</g>
		</g>
		<path fill="#FFFFFF" d="M334.241,512.504c-3.146-6.231-18.247-35.541-26.598-35.541c-4.173,0-8.488,0-28.102,35.276
			c-10.874,19.559-18.087,33.268-18.087,39.462c0,11.842,9.636,21.477,21.478,21.477c5.56,0,10.833-2.115,14.91-6.019
			c2.54-2.439,9.2-7.34,16.172-0.143c3.792,3.916,9.278,6.161,15.053,6.161c11.844,0,21.478-9.635,21.478-21.477
			C350.545,544.189,337.803,519.557,334.241,512.504z M329.067,558.154c-1.729,0-3.282-0.579-4.261-1.589
			c-5.22-5.391-11.441-8.269-17.994-8.327c-0.07-0.002-0.14-0.002-0.21-0.002c-10.465,0-18.072,7.02-19.237,8.156
			c-1.203,1.137-2.776,1.762-4.433,1.762c-3.41,0-6.183-2.664-6.412-6.018c2.222-7.97,21.687-44.07,30.938-56.965
			c8.529,13.007,26.169,49.057,28.029,56.875C335.303,555.441,332.508,558.154,329.067,558.154z"/>
		<path fill="#FFFFFF" d="M583.789,332.646C583.789,198.85,479.575,90,351.479,90h-90.958C132.425,90,28.211,198.85,28.211,332.646
			c0,41.733,10.297,82.704,29.763,118.843c-9.801,14.271-14.972,30.817-14.972,48.167c0,47.854,39.92,86.786,88.987,86.786
			c4.154,0,8.292-0.279,12.383-0.835v96.103c0,11.188,9.102,20.292,20.291,20.292h7.169c11.189,0,20.291-9.104,20.291-20.292
			v-12.859h7.349v12.859c0,11.188,9.104,20.292,20.291,20.292h7.169c11.189,0,20.291-9.104,20.291-20.292v-12.859h7.351v12.859
			c0,11.188,9.104,20.292,20.292,20.292h7.167c11.189,0,20.292-9.104,20.292-20.292v-12.859h7.351v12.859
			c0,11.188,9.102,20.292,20.291,20.292h7.167c11.189,0,20.291-9.104,20.291-20.292v-12.859h7.351v12.859
			c0,11.188,9.104,20.292,20.292,20.292h7.167c11.188,0,20.291-9.104,20.291-20.292v-12.859h7.351v12.859
			c0,11.188,9.104,20.292,20.291,20.292h7.169c11.188,0,20.291-9.104,20.291-20.292v-96.103c4.091,0.554,8.229,0.835,12.382,0.835
			c49.068,0,88.986-38.931,88.986-86.786c0-17.35-5.17-33.896-14.971-48.167C573.492,415.348,583.787,374.378,583.789,332.646z
			 M177.1,681.709c0,2.905-2.363,5.269-5.269,5.269h-7.169c-2.905,0-5.269-2.363-5.269-5.269v-24.605
			c0-2.905,2.363-5.271,5.269-5.271h7.169c2.905,0,5.269,2.363,5.269,5.271V681.709z M232.201,681.709
			c0,2.905-2.363,5.269-5.269,5.269h-7.169c-2.905,0-5.269-2.363-5.269-5.269v-24.605c0-2.905,2.363-5.271,5.269-5.271h7.169
			c2.905,0,5.269,2.363,5.269,5.271V681.709z M287.301,681.709c0,2.905-2.363,5.269-5.269,5.269h-7.167
			c-2.905,0-5.268-2.363-5.268-5.269v-24.605c0-2.905,2.363-5.271,5.268-5.271h7.167c2.905,0,5.269,2.363,5.269,5.271V681.709z
			 M342.403,681.709c0,2.905-2.363,5.269-5.269,5.269h-7.168c-2.905,0-5.269-2.363-5.269-5.269v-24.605
			c0-2.905,2.363-5.271,5.269-5.271h7.168c2.905,0,5.269,2.363,5.269,5.271V681.709z M397.505,681.709
			c0,2.905-2.363,5.269-5.269,5.269h-7.167c-2.906,0-5.269-2.363-5.269-5.269v-24.605c0-2.905,2.362-5.271,5.269-5.271h7.167
			c2.905,0,5.269,2.363,5.269,5.271V681.709z M452.606,681.709c0,2.905-2.363,5.269-5.269,5.269h-7.169
			c-2.905,0-5.269-2.363-5.269-5.269v-24.605c0-2.905,2.363-5.271,5.269-5.271h7.169c2.905,0,5.269,2.363,5.269,5.271V681.709z
			 M480.011,571.418c-6.134,0-12.229-0.727-18.113-2.163c-2.236-0.545-4.604-0.034-6.419,1.39c-1.813,1.424-2.872,3.601-2.872,5.908
			v60.979c-1.685-0.455-3.443-0.718-5.269-0.718h-7.169c-10.071,0-18.429,7.382-20.001,17.015h-7.929
			c-1.575-9.633-9.932-17.015-20.002-17.015h-7.167c-10.071,0-18.428,7.382-20.001,17.015h-7.929
			c-1.575-9.633-9.932-17.015-20.002-17.015h-7.167c-10.071,0-18.427,7.382-20.001,17.015h-7.931
			c-1.574-9.633-9.93-17.015-20.001-17.015h-7.167c-10.071,0-18.428,7.382-20.001,17.015h-7.929
			c-1.574-9.633-9.932-17.015-20.001-17.015h-7.169c-10.071,0-18.428,7.382-20.001,17.015h-7.929
			c-1.575-9.633-9.932-17.015-20.001-17.015h-7.168c-1.826,0-3.584,0.265-5.269,0.718v-60.979c0-2.306-1.059-4.482-2.873-5.908
			c-1.814-1.423-4.184-1.935-6.419-1.39c-5.886,1.437-11.979,2.163-18.114,2.163c-40.784,0-73.964-32.193-73.964-71.763
			c0-15.652,5.103-30.528,14.757-43.018c1.935-2.503,2.031-5.835,0.517-8.403c-19.675-34.879-30.071-74.845-30.072-115.588
			c0-65.774,26.779-125.109,69.504-166.702l48.037,64.423c1.417,1.902,3.65,3.021,6.021,3.021h53.852
			c4.148,0,7.512-3.362,7.512-7.512c0-4.149-3.364-7.511-7.512-7.511h-50.083l-46.662-62.58
			c37.351-31.723,84.899-50.763,136.618-50.763h90.958c44.653,0,86.198,14.189,120.758,38.482l-70.24,51.998
			c-2.833,2.097-3.826,5.886-2.387,9.105l22.04,49.271c1.248,2.79,3.988,4.445,6.86,4.445c1.024,0,2.067-0.212,3.063-0.657
			c3.787-1.694,5.483-6.137,3.788-9.924l-19.574-43.76l68.924-51.023c51.113,41.684,84.056,106.727,84.056,179.684
			c0,40.743-10.397,80.71-30.065,115.59c-1.513,2.569-1.416,5.899,0.519,8.402c9.653,12.489,14.757,27.365,14.757,43.018
			C553.975,539.225,520.794,571.418,480.011,571.418z"/>
	</g>
</g>
</svg>
