<?xml version="1.0" encoding="utf-8"?>
<!-- Generator: Adobe Illustrator 14.0.0, SVG Export Plug-In . SVG Version: 6.00 Build 43363)  -->
<!DOCTYPE svg PUBLIC "-//W3C//DTD SVG 1.1//EN" "http://www.w3.org/Graphics/SVG/1.1/DTD/svg11.dtd">
<svg version="1.1" id="Capa_1" xmlns="http://www.w3.org/2000/svg" xmlns:xlink="http://www.w3.org/1999/xlink" x="0px" y="0px"
	 width="612px" height="792px" viewBox="0 0 612 792" enable-background="new 0 0 612 792" xml:space="preserve">
<g>
	<path fill="#FFFFFF" d="M570.016,314.971l-25.829-25.83l15.54-15.54c1.832-1.831,2.86-4.315,2.86-6.905s-1.028-5.075-2.859-6.905
		l-47.476-47.475c-1.832-1.832-4.315-2.86-6.906-2.86c-2.592,0-5.073,1.028-6.907,2.86l-15.503,15.503
		c-43.067-43.805-82.066-90.305-117.902-134.229c-1.655-2.029-4.055-3.308-6.662-3.551c-2.604-0.241-5.2,0.57-7.201,2.259
		c-22.933,19.342-45.347,39.874-66.666,61.063c-21.152,21.279-41.682,43.696-61.021,66.625c-1.688,2.001-2.501,4.595-2.258,7.202
		c0.243,2.605,1.522,5.007,3.551,6.661c43.927,35.839,90.434,74.845,134.253,117.93L130.454,582.039H82.745
		c-2.59,0-5.073,1.028-6.907,2.86l-27.311,27.312c-12.541,12.542-12.541,32.947,0,45.489l30.759,30.761
		C88.019,697.191,99.665,702,112.082,702s24.062-4.809,32.794-13.539l275.449-275.456l25.829,25.827
		c1.908,1.906,4.406,2.861,6.906,2.861c2.499,0,4.999-0.953,6.907-2.861l110.05-110.049
		C573.829,324.969,573.829,318.785,570.016,314.971z M112.082,682.468c-7.198,0-13.94-2.775-18.981-7.817L62.342,643.89
		c-4.926-4.926-4.926-12.941,0-17.867l24.449-24.45h47.729c2.603,0,5.098-1.039,6.93-2.886l231.425-233.13l33.638,33.638
		l-275.45,275.454C126.022,679.69,119.28,682.468,112.082,682.468z M379.754,344.813c-34.078-34.074-69.796-65.512-104.815-94.865
		c16.313-18.957,33.444-37.484,50.998-55.15c1.812-1.801,3.634-3.598,5.464-5.39c3.842-3.76,3.917-9.912,0.184-13.769
		c-3.809-3.896-9.992-3.962-13.848-0.189c-1.865,1.826-3.721,3.658-5.612,5.536c-17.993,18.107-35.516,37.069-52.194,56.461
		c-5.053-4.18-10.086-8.323-15.088-12.419c17.096-19.893,35.06-39.33,53.472-57.854c18.56-18.447,38.001-36.417,57.896-53.515
		c4.096,5,8.237,10.033,12.416,15.084c-7.336,6.31-14.651,12.776-21.83,19.299c-3.992,3.627-4.289,9.804-0.662,13.796
		c1.964,2.133,4.593,3.199,7.231,3.199c2.344,0,4.692-0.838,6.563-2.538c6.972-6.333,14.075-12.612,21.199-18.743
		c29.368,35.037,60.819,70.771,94.865,104.816l47.468,47.468c0.013,0.013,25.837,25.835,25.837,25.835l-96.239,96.239
		L379.754,344.813z M539.011,266.696l-8.635,8.634l-33.664-33.664l8.635-8.634L539.011,266.696z"/>
	<path fill="#FFFFFF" d="M462.038,243.823c-3.815-3.814-9.998-3.814-13.812,0l-73.222,73.221c-3.813,3.814-3.813,9.998,0,13.811
		c1.907,1.906,4.408,2.861,6.906,2.861c2.499,0,4.999-0.953,6.907-2.861l73.221-73.221
		C465.852,253.821,465.852,247.637,462.038,243.823z"/>
	<path fill="#FFFFFF" d="M528.219,310.005c-3.815-3.814-9.998-3.814-13.812,0l-73.219,73.22c-3.814,3.814-3.814,9.998,0,13.811
		c1.907,1.906,4.407,2.861,6.906,2.861s4.999-0.954,6.906-2.861l73.219-73.22C532.031,320.001,532.031,313.817,528.219,310.005z"/>
</g>
</svg>
